<?xml version="1.0" encoding="UTF-8" standalone="no"?><!DOCTYPE svg PUBLIC "-//W3C//DTD SVG 1.1//EN" "http://www.w3.org/Graphics/SVG/1.1/DTD/svg11.dtd"><svg width="100%" height="100%" viewBox="0 0 2084 1980" version="1.1" xmlns="http://www.w3.org/2000/svg" xmlns:xlink="http://www.w3.org/1999/xlink" xml:space="preserve" xmlns:serif="http://www.serif.com/" style="fill-rule:evenodd;clip-rule:evenodd;stroke-linejoin:round;stroke-miterlimit:2;"><g id="Fondo"><path d="M2077.083,0c1.871,21.017 1.656,20.912 2.021,22.699c0.731,3.573 3.591,1.283 4.225,4.385l0,4.167c-5.702,16.594 -3.47,16.45 0,33.333c-7.303,35.662 -3.056,35.184 0,70.833l0,8.333c-2.981,23.298 -7.746,22.933 0,45.833l0,8.333c-13.631,39.198 -0.638,55.151 0,62.5l0,8.333c-3.794,14.834 -5.046,14.49 0,29.167l0,8.333c-3.629,10.719 -5.142,10.735 0,20.833l0,8.333c-10.48,40.815 -2.254,40.443 0,66.667c-4.25,12.486 -4.3,12.479 0,25l0,8.333c-3.402,33.505 -5.695,32.969 0,66.667l0,4.167c-13.656,39.689 -1.474,39.985 0,54.167l0,16.667c-3.065,6.134 -3.238,6.077 0,12.5l0,16.667c-3.564,34.498 -7.728,34.989 0,50l0,12.5c-5.184,15.014 -3.794,14.663 0,29.167l0,4.167c-5.015,14.806 -3.772,14.442 0,29.167c-3.221,12.731 -6.106,12.917 0,25l0,8.333c-3.631,17.033 -5.914,16.646 0,33.333l0,8.333c-4.084,8.158 -4.246,8.445 0,16.667l0,8.333c-3.937,18.911 -4.884,18.808 0,37.5c-8.17,23.875 -2.864,23.727 0,45.833l0,12.5c-4.345,54.338 -4.375,53.899 0,108.333c-3.316,12.922 -6.193,13.089 0,25l0,8.333c-7.113,48.51 -16.203,49.17 0,95.833l0,4.167c-7.692,29.348 -3.084,28.898 0,58.333l0,8.333c-3.619,10.604 -5.292,10.581 0,20.833l0,16.667c-6.915,26.878 -3.157,26.694 0,54.167l0,8.333c-3.255,12.79 -6.089,12.93 0,25c-4.424,16.874 -4.377,16.556 0,33.333l0,4.167c-3.771,14.746 -5.05,14.396 0,29.167l0,12.5c-3.214,6.476 -3.044,6.403 0,12.5l0,45.833c-5.954,29.045 -3.363,28.797 0,58.333l0,4.167c-3.677,21.405 -5.387,21.048 0,41.667l0,95.833c-3.397,16.842 -5.821,16.418 0,33.333c-5.115,63.259 -4.568,62.464 0,125l0,12.5c-4.857,14.19 -3.896,14.175 0,29.167l0,8.333c-4.168,8.202 -4.314,8.512 0,16.667l0,20.833c-4.788,32.837 -6.053,32.542 -6.246,35.413l-2077.083,-0c-5.534,-16.602 -0,-17.164 0,-218.746l0,-1760.417c19.672,-9.472 21.053,0 272.917,0l1804.167,0Z" style="fill:#010101;"/><path d="M1314.597,1583.488c-103.957,-8.676 -839.037,-160.85 -862.728,-168.285c-184.391,-57.869 -6.037,-149.862 94.33,-268.666c127.959,-151.465 152.564,-551.73 535.305,-487.423c197.98,33.264 564.594,339.216 768.956,104.161c98.389,-113.166 -21.064,-376.408 -83.047,-673.859c-1.866,-8.955 225.457,-8.097 227.615,-0.257c1.191,4.325 0.56,686.559 0.505,746.26c-0.04,43.793 -12.795,39.968 -144.634,140.124c-314.412,238.853 -71.326,599.484 -536.303,607.945Z" style="fill:#fefefe;"/><path d="M989.552,587.687c-396.738,40.441 -341.795,362.44 -509.479,538.306c-79.734,83.625 -256.902,203.633 -135.298,308.24c75.764,65.174 97.833,33.595 782.577,183.39c412.426,90.222 531.009,-46.096 598.123,-311.732c55.232,-218.61 108.27,-243.147 254.545,-347.326c19.016,-13.543 15.509,4.08 15.38,26.854c-0.057,10.001 0.517,9.652 0.069,125.017c-0.131,33.709 -102.778,57.176 -164.796,320.64c-46.527,197.657 -122.897,375.709 -466.082,381.472c-217.925,3.659 -215.923,-98.711 -895.616,-220.803c-136.831,-24.579 -396.721,-108.748 -397.732,-122.497c-0.809,-11.006 -0.973,-265.138 -0.434,-266.786c8.755,-26.747 188.717,-8.76 350.793,-309.413c48.297,-89.592 237.679,-614.127 684.835,-428.918c11.483,4.756 356.184,193.351 486.102,-4.56c84.511,-128.739 -41.942,-375.778 -11.431,-375.87c84.493,-0.255 118.964,-2.295 122.326,9.67c0.701,2.493 117.568,475.452 120.837,500.151c26.618,201.101 -176.574,257.04 -467.249,106.923c-182.802,-94.407 -227.041,-110.079 -367.471,-112.759Z" style="fill:#fefefe;"/><path d="M1085.436,787.343c30.054,0.757 59.465,-44.262 407.017,191.663c227.842,154.663 80.975,456.716 -369.547,440.034c-401.239,-14.857 -480.262,-99.79 -388.519,-250.941c131.953,-217.4 85.504,-356.748 351.049,-380.755Z" style="fill:#010101;"/><path d="M906.224,362.655c-544.203,53.572 -398.212,605 -829.034,769.167c-13.758,5.242 -7.335,-8.046 -6.777,-183.907c0.088,-27.828 74.448,21.283 208.684,-278.296c99.362,-221.749 250.745,-483.389 610.426,-473.801c145.351,3.875 396.071,192.756 471.869,31.722c33.49,-71.149 -11.974,-143.535 11.49,-143.546c100.08,-0.047 132.707,-1.753 135.569,6.344c7.537,21.326 60.507,171.207 49.896,278.296c-7.451,75.201 -84.917,148.444 -243.949,109.04c-172.704,-42.793 -172.349,-111.34 -408.173,-115.018Z" style="fill:#fefefe;"/><path d="M1177.097,1358.186c-108.432,0.302 -375.503,-14.54 -404.949,-80.759c-24.689,-55.521 26.2,-47.366 99.394,-250.865c125.737,-349.581 451.244,-83.509 569.348,-5.69c219.151,144.399 21.726,319.892 -234.505,336.782c-9.743,0.642 -19.544,-0.11 -29.287,0.532Z" style="fill:#fefefe;"/><path d="M1318.8,1870.969c569.03,39.005 547.325,-425.277 621.547,-572.674c24.154,-47.967 57.594,-98.242 56.69,-79.456c-6.723,139.707 5.777,676.069 -6.941,676.584c-24.819,1.005 -882.823,0.122 -1137.999,0.711c-90.005,0.208 -79.383,-62.92 -362.788,-121.714c-203.994,-42.32 -417.94,-49.932 -418.327,-72.197c-2.654,-152.424 -5.882,-163.19 6.215,-159.182c286.869,95.048 287.733,90.016 583.504,149.433c340.785,68.459 396.518,148.391 658.1,178.495Z" style="fill:#fefefe;"/><path d="M70.584,731.248c-0.094,-200.649 -2.133,-199.939 0.897,-217.035c0.761,-4.297 43.319,-85.952 69.505,-132.162c14.246,-25.139 130.441,-230.183 208.092,-295.212c13.176,-11.035 865.357,-3.457 940.603,-2.788c17.692,0.157 22.889,82.512 17.838,101.677c-38.763,147.09 -240.156,-88.914 -526.088,-49.065c-489.896,68.274 -529.661,587.608 -698.935,725.411c-17.364,14.136 -11.981,-25.945 -11.912,-130.826Z" style="fill:#fefefe;"/><path d="M987.354,1131.231c36.598,-281.453 427.439,-159.935 382.225,4.475c-26.069,94.793 -370.862,174.466 -382.225,-4.475Z" style="fill:#010101;"/><path d="M214.445,1795.621c67.829,10.582 282.642,31 453.218,95.37c42.647,16.093 -22.294,3.031 -569.76,5.126c-43.913,0.168 -27.248,-20.879 -27.365,-64.87c-0.012,-4.431 -0.148,-55.492 6.536,-54.997c24.276,1.796 126.405,17.667 137.371,19.371Z" style="fill:#fefefe;"/><path d="M1049.758,1131.181c7.489,-108.396 131.432,-125.669 206.914,-84.097c189.059,104.122 -191.099,189.873 -206.914,84.097Z" style="fill:#fefefe;"/><path d="M70.59,335.409c-0.162,-207.353 -0.345,-243.833 0.466,-246.524c1.475,-4.892 3.779,-4.761 185.325,-4.902c27.19,-0.021 -16.878,8.721 -179.888,288.373c-7.702,13.213 -6.011,-33.955 -5.903,-36.946Z" style="fill:#fefefe;"/><path d="M2083.329,1731.25l0,125c-4.568,-62.536 -5.115,-61.741 0,-125Z" style="fill:#1e1e1e;"/><path d="M2083.329,927.083l0,108.333c-4.375,-54.434 -4.345,-53.995 0,-108.333Z" style="fill:#1b1b1b;"/><path d="M2083.329,1068.75l0,95.833c-16.203,-46.663 -7.113,-47.324 0,-95.833Z" style="fill:#1c1c1c;"/><path d="M2083.329,64.583l0,70.833c-3.056,-35.649 -7.303,-35.171 0,-70.833Z" style="fill:#1e1e1e;"/><path d="M2083.329,335.417l0,66.667c-2.254,-26.224 -10.48,-25.851 0,-66.667Z" style="fill:#1a1a1a;"/><path d="M2083.329,435.417l0,66.667c-5.695,-33.697 -3.402,-33.162 0,-66.667Z" style="fill:#1c1c1c;"/><path d="M2083.329,197.917l0,62.5c-0.638,-7.349 -13.631,-23.302 0,-62.5Z" style="fill:#1e1e1e;"/><path d="M2083.329,1168.75l0,58.333c-3.084,-29.436 -7.692,-28.985 0,-58.333Z" style="fill:#1d1d1d;"/><path d="M2083.329,1497.917l0,58.333c-3.363,-29.537 -5.954,-29.288 0,-58.333Z" style="fill:#1b1b1b;"/><path d="M2083.329,506.25l0,54.167c-1.474,-14.181 -13.656,-14.478 0,-54.167Z" style="fill:#1c1c1c;"/><path d="M2083.329,1272.917l0,54.167c-3.157,-27.472 -6.915,-27.289 0,-54.167Z" style="fill:#1b1b1b;"/><path d="M2083.329,606.25l0,50c-7.728,-15.011 -3.564,-15.502 0,-50Z" style="fill:#212121;"/><path d="M2083.329,868.75l0,45.833c-2.864,-22.106 -8.17,-21.958 0,-45.833Z" style="fill:#1f1f1f;"/><path d="M2083.329,143.75l0,45.833c-7.746,-22.9 -2.981,-22.536 0,-45.833Z" style="fill:#222;"/><path d="M2083.329,1560.417l0,41.667c-5.387,-20.619 -3.677,-20.262 0,-41.667Z" style="fill:#1d1d1d;"/><path d="M2083.329,1943.75c-2.082,11.804 -4.164,23.608 -6.246,35.412c0.193,-2.87 1.458,-2.575 6.246,-35.412Z" style="fill:#1d1d1d;"/><path d="M2083.329,831.25l0,37.5c-4.884,-18.692 -3.937,-18.589 0,-37.5Z" style="fill:#1c1c1c;"/><path d="M2083.329,764.583l0,33.333c-5.914,-16.687 -3.631,-16.301 0,-33.333Z" style="fill:#1a1a1a;"/><path d="M2083.329,1360.417l0,33.333c-4.377,-16.777 -4.424,-16.46 0,-33.333Z" style="fill:#1e1e1e;"/><path d="M2083.329,31.25l0,33.333c-3.47,-16.883 -5.702,-16.739 0,-33.333Z" style="fill:#1e1e1e;"/><path d="M2083.329,1697.917l0,33.333c-5.821,-16.916 -3.397,-16.491 0,-33.333Z" style="fill:#1a1a1a;"/><path d="M2077.083,0c2.082,9.028 4.164,18.056 6.246,27.083c-0.634,-3.102 -3.494,-0.812 -4.225,-4.385c-0.365,-1.786 -0.15,-1.681 -2.021,-22.699Z" style="fill:#252525;"/><path d="M2083.329,668.75l0,29.167c-3.794,-14.504 -5.184,-14.152 0,-29.167Z" style="fill:#1a1a1a;"/><path d="M2083.329,1868.75l0,29.167c-3.896,-14.992 -4.857,-14.977 0,-29.167Z" style="fill:#1b1b1b;"/><path d="M2083.329,268.75l0,29.167c-5.046,-14.677 -3.794,-14.332 0,-29.167Z" style="fill:#1e1e1e;"/><path d="M2083.329,702.083l0,29.167c-3.772,-14.724 -5.015,-14.361 0,-29.167Z" style="fill:#1b1b1b;"/><path d="M2083.329,1397.917l0,29.167c-5.05,-14.771 -3.771,-14.421 0,-29.167Z" style="fill:#1c1c1c;"/><path d="M2083.329,1035.417l0,25c-6.193,-11.911 -3.316,-12.078 0,-25Z" style="fill:#242424;"/><path d="M2083.329,731.25l0,25c-6.106,-12.083 -3.221,-12.269 0,-25Z" style="fill:#1e1e1e;"/><path d="M2083.329,402.083l0,25c-4.3,-12.521 -4.25,-12.514 0,-25Z" style="fill:#1d1d1d;"/><path d="M2083.329,1335.417l0,25c-6.089,-12.07 -3.255,-12.21 0,-25Z" style="fill:#1e1e1e;"/><path d="M2083.329,1235.417l0,20.833c-5.292,-10.252 -3.619,-10.229 0,-20.833Z" style="fill:#232323;"/><path d="M2083.329,306.25l0,20.833c-5.142,-10.098 -3.629,-10.115 0,-20.833Z" style="fill:#1e1e1e;"/><path d="M2083.329,1906.25l0,16.667c-4.314,-8.155 -4.168,-8.465 0,-16.667Z" style="fill:#1c1c1c;"/><path d="M2083.329,806.25l0,16.667c-4.246,-8.222 -4.084,-8.509 0,-16.667Z" style="fill:#1a1a1a;"/><path d="M2083.329,1439.583l0,12.5c-3.044,-6.097 -3.214,-6.024 0,-12.5Z" style="fill:#1c1c1c;"/><path d="M2083.329,577.083l0,12.5c-3.238,-6.423 -3.065,-6.366 0,-12.5Z" style="fill:#1d1d1d;"/></g></svg>